<?xml version="1.0" standalone="no"?>
<!DOCTYPE svg PUBLIC "-//W3C//DTD SVG 20010904//EN"
 "http://www.w3.org/TR/2001/REC-SVG-20010904/DTD/svg10.dtd">
<svg version="1.0" xmlns="http://www.w3.org/2000/svg"
 width="403.000000pt" height="341.000000pt" viewBox="0 0 403.000000 341.000000"
 preserveAspectRatio="xMidYMid meet">

<g transform="translate(0.000000,341.000000) scale(0.100000,-0.100000)"
fill="#000000" stroke="none">
<path d="M1934 3400 c-35 -14 -82 -80 -110 -153 -31 -82 -43 -208 -36 -373 2
-61 1 -149 -2 -195 l-7 -84 -71 -75 c-40 -41 -118 -123 -174 -181 l-102 -105
-6 38 c-7 43 -28 58 -80 58 -46 0 -81 -17 -94 -45 -6 -13 -14 -69 -18 -124
l-7 -101 -46 -39 c-25 -22 -89 -76 -141 -120 l-95 -79 -8 31 c-13 50 -24 57
-86 57 -90 0 -95 -8 -101 -143 l-5 -114 -65 -53 c-36 -30 -67 -57 -70 -60 -3
-3 -59 -50 -125 -104 -66 -55 -124 -104 -130 -110 -5 -6 -32 -29 -60 -51 -27
-21 -52 -42 -55 -45 -3 -4 -48 -41 -100 -84 -121 -99 -140 -132 -140 -238 0
-43 3 -78 6 -78 10 0 57 25 374 193 41 22 131 70 200 107 69 37 170 91 225
120 54 29 121 66 148 82 26 15 50 28 53 28 4 0 49 24 103 54 150 84 282 155
327 176 55 26 306 101 313 94 16 -15 39 -434 43 -757 l3 -267 -225 -231 c-124
-127 -231 -244 -238 -261 -7 -18 -12 -58 -10 -96 5 -102 12 -100 249 75 110
81 227 167 260 191 l58 43 17 -58 c9 -32 27 -82 40 -110 23 -52 24 -53 67 -53
l43 0 32 71 c18 39 32 80 33 92 0 12 4 30 8 40 7 20 13 16 455 -311 86 -63
112 -67 122 -16 8 45 -3 132 -21 157 -8 12 -72 80 -143 151 -70 72 -169 176
-219 231 l-90 100 8 340 c8 357 27 675 40 675 9 0 182 -54 261 -81 31 -11 92
-39 135 -63 43 -23 123 -67 178 -96 55 -29 105 -56 110 -60 6 -4 80 -45 165
-90 85 -46 184 -99 220 -118 36 -19 99 -53 140 -75 41 -21 98 -52 125 -67 28
-15 84 -46 125 -67 41 -22 119 -64 173 -92 53 -29 102 -49 107 -46 13 8 13 91
-1 153 -12 57 -12 58 -234 242 -82 69 -152 127 -155 131 -3 3 -52 45 -110 93
-58 48 -129 108 -159 134 -30 26 -61 52 -70 59 -13 9 -16 32 -16 118 0 100 -1
108 -24 126 -16 13 -39 19 -75 19 -64 0 -77 -9 -85 -55 l-6 -37 -30 26 c-16
15 -80 68 -142 119 l-111 92 -7 90 c-12 165 -29 190 -126 183 -44 -3 -56 -15
-74 -72 -4 -15 -30 8 -133 115 -70 74 -147 154 -172 179 l-45 45 -6 290 -5
290 -31 73 c-40 93 -57 119 -96 142 -34 21 -132 27 -173 10z"/>
</g>
</svg>
