<?xml version="1.0" encoding="UTF-8" standalone="no"?>
<svg
   version="1.0"
   width="403.000000pt"
   height="341.000000pt"
   viewBox="0 0 403.000000 341.000000"
   preserveAspectRatio="xMidYMid meet"
   id="svg6"
   sodipodi:docname="graphic_dep.svg"
   inkscape:version="1.2.2 (b0a8486, 2022-12-01)"
   inkscape:export-filename="graphic_2.svg"
   inkscape:export-xdpi="96"
   inkscape:export-ydpi="96"
   xmlns:inkscape="http://www.inkscape.org/namespaces/inkscape"
   xmlns:sodipodi="http://sodipodi.sourceforge.net/DTD/sodipodi-0.dtd"
   xmlns="http://www.w3.org/2000/svg"
   xmlns:svg="http://www.w3.org/2000/svg">
  <defs
     id="defs10" />
  <sodipodi:namedview
     id="namedview8"
     pagecolor="#ffffff"
     bordercolor="#000000"
     borderopacity="0.25"
     inkscape:showpageshadow="2"
     inkscape:pageopacity="0.0"
     inkscape:pagecheckerboard="0"
     inkscape:deskcolor="#d1d1d1"
     inkscape:document-units="pt"
     showgrid="false"
     inkscape:zoom="0.65829305"
     inkscape:cx="132.15999"
     inkscape:cy="255.96503"
     inkscape:window-width="1440"
     inkscape:window-height="799"
     inkscape:window-x="0"
     inkscape:window-y="25"
     inkscape:window-maximized="0"
     inkscape:current-layer="svg6" />
  <g
     id="g290">
    <path
       id="path2"
       inkscape:label="plane"
       d="M 2011.9775 3408.4033 L 2011.9775 3408.0957 C 1982.276 3408.8799 1951.9397 3407.432 1934.0039 3399.9951 C 1899.0039 3385.9951 1851.9941 3320.0068 1823.9941 3247.0068 C 1792.9943 3165.007 1781.0029 3038.9988 1788.0029 2873.999 C 1790.0029 2812.9992 1788.9961 2724.999 1785.9961 2678.999 L 1778.9941 2595.0049 L 1707.9932 2520.0049 C 1667.9932 2479.0049 1589.999 2396.9941 1533.999 2338.9941 L 1432.002 2233.9941 L 1425.9961 2272.0068 C 1418.9961 2315.0068 1398.0008 2330 1346.001 2330 C 1300.001 2330 1265.0018 2313 1252.002 2285 C 1246.002 2272 1237.999 2216.0008 1233.999 2161.001 L 1226.9971 2060 L 1181.001 2021.0059 C 1156.001 1999.0059 1091.9951 1945.0057 1039.9951 1901.0059 L 945 1822.0068 L 937.00195 1853.0029 C 924.00199 1903.0029 913.00084 1910 851.00098 1910 C 761.00116 1910 755.99998 1902.0016 750 1767.002 L 745.00488 1652.9932 L 679.99512 1599.9951 C 643.99518 1569.9951 613.00488 1542.9951 610.00488 1539.9951 C 607.0049 1536.9951 550.99498 1490.0057 484.99512 1436.0059 C 418.99524 1381.0059 361.00488 1331.9961 355.00488 1325.9961 C 350.0049 1319.9961 323.00482 1297.0049 295.00488 1275.0049 C 268.00494 1254.0049 243 1233.0049 240 1230.0049 C 237 1226.0049 191.99502 1188.9961 139.99512 1145.9961 C 18.995356 1046.9963 -1.7763551e-14 1014.0027 0 908.00293 C 0 865.00301 3.0058654 830 6.0058594 830 C 16.005839 830 62.995748 854.99346 379.99512 1022.9932 C 420.99504 1044.993 511.00502 1093 580.00488 1130 C 649.00474 1167 750.005 1221 805.00488 1250 C 859.00478 1279 925.99809 1316.002 952.99805 1332.002 C 978.99799 1347.0018 1002.9961 1359.9951 1005.9961 1359.9951 C 1009.9961 1359.9951 1055.0041 1384.0039 1109.0039 1414.0039 C 1259.0037 1498.0037 1391.001 1569.0049 1436.001 1590.0049 C 1491.0008 1616.0049 1741.9941 1691.0039 1748.9941 1684.0039 C 1764.9941 1669.0039 1788.002 1250.0013 1792.002 927.00195 L 1795.0049 660.00488 L 1570.0049 428.99902 C 1446.0051 301.99928 1338.9971 184.99314 1331.9971 167.99316 C 1324.9971 149.9932 1320.0068 110.00188 1322.0068 72.001953 C 1327.0068 -29.997843 1334.0014 -27.997694 1571.001 147.00195 C 1681.0008 228.00179 1797.9961 314.00297 1830.9961 338.00293 L 1889.0039 380.99609 L 1905.9961 323.00293 C 1914.9961 291.00299 1933.001 240.99312 1946.001 212.99316 C 1968.7133 161.64358 1970.5428 160.20327 2011.9775 160.1709 L 2011.9775 159.99512 L 2013.0029 159.99512 L 2013.9697 159.99512 L 2014.9951 159.99512 L 2014.9951 160.03906 C 2056.7266 160.06409 2058.2041 161.51871 2080.9717 212.99316 C 2093.9717 240.99304 2111.9766 291.00306 2120.9766 323.00293 L 2137.9688 380.99609 L 2195.9766 338.00293 C 2228.9765 314.00295 2345.9719 228.00177 2455.9717 147.00195 C 2692.9712 -27.997772 2699.9658 -29.997845 2704.9658 72.001953 C 2706.9658 110.00182 2701.9756 149.99318 2694.9756 167.99316 C 2687.9756 184.99315 2580.9675 301.99925 2456.9678 428.99902 L 2231.9678 660.00488 L 2234.9707 927.00195 C 2238.9707 1250.0012 2261.9785 1669.0039 2277.9785 1684.0039 C 2284.9785 1691.0039 2535.9718 1616.0049 2590.9717 1590.0049 C 2635.9716 1569.0049 2767.969 1498.0037 2917.9688 1414.0039 C 2971.9686 1384.0039 3016.9766 1359.9951 3020.9766 1359.9951 C 3023.9766 1359.9951 3047.9746 1347.0018 3073.9746 1332.002 C 3100.9745 1316.002 3167.9679 1279 3221.9678 1250 C 3276.9677 1221 3377.9679 1167 3446.9678 1130 C 3515.9677 1093 3605.9776 1044.993 3646.9775 1022.9932 C 3963.9769 854.99343 4010.9669 830 4020.9668 830 C 4023.9668 830 4026.9727 865.00307 4026.9727 908.00293 C 4026.9727 1014.0027 4007.9773 1046.9963 3886.9775 1145.9961 C 3834.9776 1188.9961 3789.9727 1226.0049 3786.9727 1230.0049 C 3783.9727 1233.0049 3758.9677 1254.0049 3731.9678 1275.0049 C 3703.9678 1297.0049 3676.9678 1319.9961 3671.9678 1325.9961 C 3665.9678 1331.9961 3607.9774 1381.0059 3541.9775 1436.0059 C 3475.9777 1490.0057 3419.9678 1536.9951 3416.9678 1539.9951 C 3413.9678 1542.9951 3382.9775 1569.9951 3346.9775 1599.9951 L 3281.9678 1652.9932 L 3276.9727 1767.002 C 3270.9727 1902.0016 3265.9715 1910 3175.9717 1910 C 3113.9718 1910 3102.9706 1903.0029 3089.9707 1853.0029 L 3081.9727 1822.0068 L 2986.9775 1901.0059 C 2934.9776 1945.0057 2870.9717 1999.0059 2845.9717 2021.0059 L 2799.9756 2060 L 2792.9736 2161.001 C 2788.9736 2216.0008 2780.9707 2272 2774.9707 2285 C 2761.9708 2313 2726.9716 2330 2680.9717 2330 C 2628.9718 2330 2607.9766 2315.0068 2600.9766 2272.0068 L 2594.9707 2233.9941 L 2492.9736 2338.9941 C 2436.9737 2396.9941 2358.9795 2479.0049 2318.9795 2520.0049 L 2247.9785 2595.0049 L 2240.9766 2678.999 C 2237.9768 2724.999 2236.9697 2812.9992 2238.9697 2873.999 C 2245.9697 3038.9988 2233.9784 3165.007 2202.9785 3247.0068 C 2174.9785 3320.0068 2127.9687 3385.9951 2092.9688 3399.9951 C 2074.9628 3407.4611 2044.8111 3409.1527 2014.9951 3408.3447 L 2014.9951 3408.4033 C 2014.8054 3408.4096 2014.6869 3408.3386 2014.4971 3408.3447 C 2013.6346 3408.3205 2012.8391 3408.4319 2011.9775 3408.4033 z "
       transform="matrix(0.1,0,0,-0.1,0,341)" />
  </g>
</svg>
